<svg id="Layer_1" data-name="Layer 1" xmlns="http://www.w3.org/2000/svg" viewBox="0 0 809 1067"><defs><style>.cls-1{fill:#fff;stroke:#fff200;stroke-miterlimit:10;}</style></defs><path class="cls-1" d="M1301.84,1060.42c-23.12,0-46.42-10.88-69.25-32.33-22-20.65-43.83-50.88-66.78-92.41-42.45-76.81-99.64-213.86-170-407.34-15.86-43.26-28.3-76.88-37.15-100.46L906.1,740.44c-12,71.43-18.05,125.89-18.05,161.85,0,49.19,11.15,83.42,33.15,101.75l24.55,20.46-29.14,13.13c-33.54,15.12-64.9,22.79-93.22,22.79-24.82,0-44.22-7.36-57.68-21.88-13-14.07-19.66-34.26-19.66-60,0-41,20-161.89,61.21-369.66l75.17-378.15L869.18,188.8c-17.91-56.72-40.13-92.11-64.28-102.32L766.61,70.27l36.55-19.8c73.72-39.93,96.81-45,108.68-45,30.8,0,54.85,17,69.57,49.23,11.75,25.76,61.25,159.77,151.33,409.7,49.58,137.51,91.22,241.94,123.75,310.42,15.92,33.5,29.82,58.78,41.32,75.12,6.75,9.58,11.34,14.15,13.86,16.24,2.81-2.91,8.59-10.65,16.13-30.15,10.9-28.21,21.87-71.66,32.59-129.14,21.67-116.18,32.66-237.32,32.66-360.07,0-93.17-17.86-154.36-53.09-181.87l-19.58-15.29,19.11-15.86c37-30.75,71.87-46.33,103.54-46.33,27.48,0,50,14.14,63.48,39.83,11.8,22.53,17.54,54.14,17.54,96.63,0,62.31-9.23,158.6-27.44,286.22-18.18,127.45-38.07,236.15-59.12,323.09-17.76,72.06-37,127.18-57.07,163.86C1357,1039.69,1331.34,1060.42,1301.84,1060.42Z" transform="translate(-715.55 -4.92)"/><path class="cls-1" d="M1261.84,1071.42c-41.18,0-82.81-39.12-127.28-119.57-42.2-76.37-99.17-212.94-169.32-405.92-22.67-61.81-38.35-104-46.6-125.35l-3.73-9.53L856.24,759.78c-12.07,72-18.19,127-18.19,163.51,0,52.29,12.36,89.11,36.74,109.43L887.07,1043l-14.57,6.57c-32.24,14.53-62.22,21.9-89.11,21.9-21.92,0-38.86-6.29-50.34-18.67-11.28-12.17-17-30.07-17-53.19,0-40.32,20-160.6,61-367.71l75.67-380.67-14-44.39c-19.09-60.46-42.61-97-69.93-108.52l-19.14-8.1,18.28-9.91C840.48,41,862,36.42,871.84,36.42c27,0,47.32,14.59,60.48,43.39,11.63,25.5,61,159.26,151,408.93,49.69,137.81,91.46,242.55,124.13,311.32,16.16,34,30.35,59.78,42.18,76.58,15.15,21.53,21.77,21.78,22,21.78,1.81,0,11.52-1.83,25.44-37.84,11.12-28.78,22.25-72.82,33.09-130.9,21.78-116.79,32.83-238.55,32.83-361.91,0-96.41-19.16-160.25-56.94-189.75l-9.79-7.65,9.56-7.93c35.19-29.21,67.87-44,97.15-44,23.92,0,42.8,11.92,54.62,34.47,11,21.07,16.4,51.16,16.4,92,0,61.83-9.2,157.65-27.34,284.81s-38,235.51-58.94,322.14c-17.54,71.2-36.42,125.49-56.11,161.41C1310.19,1052.39,1287.36,1071.42,1261.84,1071.42Z" transform="translate(-715.55 -4.92)"/></svg>