<?xml version="1.0" encoding="utf-8"?>
<!-- Generator: Adobe Illustrator 24.3.0, SVG Export Plug-In . SVG Version: 6.00 Build 0)  -->
<svg version="1.1" id="Layer_1" xmlns="http://www.w3.org/2000/svg" xmlns:xlink="http://www.w3.org/1999/xlink" x="0px" y="0px"
	 viewBox="0 0 1920 1080" style="enable-background:new 0 0 1920 1080;" xml:space="preserve">
<style type="text/css">
	.st0{fill:#FFFFFF;stroke:#FFF200;stroke-miterlimit:10;}
	.st1{display:none;}
	.st2{display:inline;}
	.st3{fill:#FFFFFF;stroke:#E2E55B;stroke-miterlimit:10;}
</style>
<g id="Layer_1">
	<g>
		<g>
			<g>
				<path class="st0" d="M1261.84,1071.42c-41.18,0-82.82-39.11-127.28-119.57c-42.2-76.36-99.17-212.93-169.32-405.92
					c-22.67-61.81-38.35-103.99-46.6-125.34l-3.73-9.53l-58.67,348.73c-12.07,71.98-18.19,127-18.19,163.51
					c0,52.29,12.36,89.11,36.75,109.43l12.28,10.23l-14.57,6.57c-32.24,14.53-62.22,21.9-89.11,21.9
					c-21.92,0-38.86-6.28-50.34-18.67c-11.28-12.17-17-30.07-17-53.19c0-40.31,19.96-160.59,61.02-367.71l75.67-380.66l-14.02-44.4
					c-19.08-60.45-42.61-96.96-69.92-108.52l-19.15-8.1l18.28-9.9c72.55-39.3,94.06-43.85,103.92-43.85
					c26.97,0,47.31,14.6,60.47,43.39c11.64,25.5,61.03,159.26,151.01,408.94c49.69,137.81,91.46,242.55,124.12,311.31
					c16.16,34.02,30.35,59.78,42.18,76.58c15.15,21.53,21.78,21.77,22.05,21.77c1.81,0,11.52-1.82,25.44-37.83
					c11.12-28.78,22.26-72.83,33.09-130.91c21.78-116.78,32.83-238.54,32.83-361.9c0-96.41-19.16-160.25-56.94-189.76l-9.79-7.64
					l9.55-7.93c35.19-29.21,67.87-44.02,97.15-44.02c23.91,0,42.8,11.92,54.62,34.48c11.03,21.06,16.4,51.15,16.4,91.99
					c0,61.83-9.2,157.65-27.33,284.8c-18.13,127.13-37.97,235.52-58.95,322.15c-17.54,71.2-36.42,125.49-56.11,161.41
					C1310.19,1052.39,1287.36,1071.42,1261.84,1071.42z"/>
			</g>
		</g>
		<g class="st1">
			<g class="st2">
				<path class="st3" d="M754.8,1057.35c-41.18,0-82.82-39.11-127.28-119.57c-42.2-76.36-99.17-212.93-169.32-405.92
					c-22.67-61.82-38.36-104-46.6-125.34l-3.73-9.53l-58.67,348.73c-12.07,71.98-18.19,127-18.19,163.51
					c0,52.29,12.36,89.11,36.75,109.43l12.28,10.23l-14.57,6.57c-32.24,14.53-62.22,21.9-89.11,21.9
					c-21.92,0-38.86-6.28-50.34-18.67c-11.28-12.17-17-30.07-17-53.19c0-40.31,19.96-160.59,61.02-367.71l75.67-380.66l-14.02-44.4
					c-19.08-60.45-42.61-96.96-69.92-108.52l-19.15-8.1l18.28-9.9c72.55-39.3,94.06-43.85,103.92-43.85
					c26.97,0,47.31,14.6,60.47,43.39C436.9,91.24,486.3,225,576.28,474.68c49.69,137.81,91.45,242.55,124.12,311.31
					c16.16,34.02,30.35,59.78,42.18,76.58c15.15,21.53,21.78,21.77,22.05,21.77c1.81,0,11.52-1.82,25.44-37.83
					c11.12-28.78,22.26-72.83,33.09-130.91C844.95,598.82,856,477.06,856,353.71c0-96.41-19.16-160.25-56.94-189.76l-9.79-7.64
					l9.55-7.93c35.19-29.21,67.87-44.02,97.15-44.02c23.91,0,42.8,11.92,54.62,34.48c11.03,21.06,16.4,51.15,16.4,91.99
					c0,61.83-9.2,157.65-27.33,284.8c-18.13,127.13-37.97,235.52-58.95,322.14c-17.54,71.2-36.42,125.49-56.11,161.41
					C803.15,1038.32,780.31,1057.35,754.8,1057.35z"/>
			</g>
		</g>
		<g>
			<g>
				<path class="st0" d="M1301.84,1061.42c-23.12,0-46.43-10.88-69.26-32.32c-21.98-20.65-43.83-50.88-66.78-92.41
					c-42.45-76.82-99.64-213.87-169.96-407.34c-15.87-43.26-28.3-76.88-37.16-100.47L906.1,741.44
					c-11.98,71.43-18.05,125.89-18.05,161.85c0,49.18,11.15,83.42,33.15,101.74l24.56,20.46l-29.14,13.13
					c-33.54,15.12-64.9,22.78-93.22,22.78c-24.82,0-44.23-7.36-57.68-21.87c-13.05-14.08-19.67-34.26-19.67-59.99
					c0-40.98,20.02-161.89,61.21-369.65l75.17-378.15l-13.25-41.95c-17.91-56.72-40.13-92.11-64.28-102.32l-38.29-16.2l36.56-19.8
					c73.72-39.93,96.81-45.05,108.68-45.05c30.79,0,54.85,17.03,69.57,49.23c11.75,25.76,61.25,159.77,151.33,409.7
					c49.58,137.5,91.22,241.94,123.75,310.41c15.92,33.51,29.82,58.78,41.33,75.12c6.75,9.58,11.33,14.15,13.85,16.24
					c2.82-2.9,8.59-10.64,16.13-30.15c10.9-28.21,21.87-71.66,32.59-129.14c21.67-116.18,32.66-237.33,32.66-360.07
					c0-93.17-17.86-154.37-53.09-181.88l-19.57-15.29l19.11-15.86c37.03-30.74,71.87-46.33,103.54-46.33
					c27.47,0,50.02,14.15,63.48,39.84c11.8,22.53,17.54,54.14,17.54,96.63c0,62.3-9.23,158.6-27.44,286.21
					c-18.18,127.45-38.07,236.15-59.13,323.09c-17.75,72.07-36.95,127.19-57.06,163.86
					C1357.04,1040.69,1331.34,1061.42,1301.84,1061.42z"/>
			</g>
		</g>
	</g>
</g>
</svg>
